<svg width="26" height="26" viewBox="0 0 26 26" fill="none" xmlns="http://www.w3.org/2000/svg">
<path d="M18.2545 0H7.74554C3.47463 0 0 3.47463 0 7.74554V18.2545C0 22.5254 3.47463 26 7.74554 26H18.2545C22.5254 26 26 22.5254 26 18.2545V7.74554C26 3.47463 22.5253 0 18.2545 0ZM23.3844 18.2545C23.3844 21.0876 21.0876 23.3844 18.2545 23.3844H7.74554C4.91238 23.3844 2.6156 21.0876 2.6156 18.2545V7.74554C2.6156 4.91233 4.91238 2.6156 7.74554 2.6156H18.2545C21.0876 2.6156 23.3844 4.91233 23.3844 7.74554V18.2545Z" fill="url(#paint0_linear)"/>
<path d="M13 6.27547C9.29213 6.27547 6.27551 9.29209 6.27551 13C6.27551 16.7078 9.29213 19.7245 13 19.7245C16.7079 19.7245 19.7246 16.7079 19.7246 13C19.7246 9.29204 16.7079 6.27547 13 6.27547ZM13 17.1089C10.7307 17.1089 8.89111 15.2693 8.89111 13C8.89111 10.7307 10.7308 8.89107 13 8.89107C15.2694 8.89107 17.109 10.7307 17.109 13C17.109 15.2693 15.2693 17.1089 13 17.1089Z" fill="url(#paint1_linear)"/>
<path d="M19.7376 7.93729C20.6275 7.93729 21.3489 7.21588 21.3489 6.32596C21.3489 5.43604 20.6275 4.71462 19.7376 4.71462C18.8476 4.71462 18.1262 5.43604 18.1262 6.32596C18.1262 7.21588 18.8476 7.93729 19.7376 7.93729Z" fill="url(#paint2_linear)"/>
<defs>
<linearGradient id="paint0_linear" x1="13" y1="25.9243" x2="13" y2="0.201946" gradientUnits="userSpaceOnUse">
<stop stop-color="#E09B3D"/>
<stop offset="0.3" stop-color="#C74C4D"/>
<stop offset="0.6" stop-color="#C21975"/>
<stop offset="1" stop-color="#7024C4"/>
</linearGradient>
<linearGradient id="paint1_linear" x1="13" y1="25.9243" x2="13" y2="0.201949" gradientUnits="userSpaceOnUse">
<stop stop-color="#E09B3D"/>
<stop offset="0.3" stop-color="#C74C4D"/>
<stop offset="0.6" stop-color="#C21975"/>
<stop offset="1" stop-color="#7024C4"/>
</linearGradient>
<linearGradient id="paint2_linear" x1="19.7376" y1="25.9243" x2="19.7376" y2="0.201939" gradientUnits="userSpaceOnUse">
<stop stop-color="#E09B3D"/>
<stop offset="0.3" stop-color="#C74C4D"/>
<stop offset="0.6" stop-color="#C21975"/>
<stop offset="1" stop-color="#7024C4"/>
</linearGradient>
</defs>
</svg>
