<svg width="24" height="24" viewBox="0 0 24 24" fill="none" xmlns="http://www.w3.org/2000/svg">
<g clip-path="url(#clip0)">
<path d="M12 16C11.795 16 11.599 15.916 11.457 15.768L6.20699 10.268C5.75199 9.79099 6.09299 8.99999 6.74999 8.99999H9.49999V7.74999C9.49999 3.47699 12.977 -7.62939e-06 17.25 -7.62939e-06C17.664 -7.62939e-06 18 0.335992 18 0.749992C18 1.16399 17.664 1.49999 17.25 1.49999C15.733 1.49999 14.5 2.73299 14.5 4.24999V8.99999H17.25C17.907 8.99999 18.248 9.79099 17.793 10.268L12.543 15.768C12.401 15.916 12.205 16 12 16Z" fill="#102A83"/>
<path d="M21 18H3C1.346 18 0 19.346 0 21C0 22.654 1.346 24 3 24H21C22.654 24 24 22.654 24 21C24 19.346 22.654 18 21 18ZM21 22.5H22.5V19.2857L21 19.5C21.827 19.5 22.5 20.173 22.5 21C22.5 21.827 21.827 22.5 21 22.5Z" fill="#102A83"/>
</g>
<defs>
<clipPath id="clip0">
<rect width="24" height="24" fill="white"/>
</clipPath>
</defs>
</svg>
