<svg width="26" height="26" viewBox="0 0 26 26" fill="none" xmlns="http://www.w3.org/2000/svg">
<path fill-rule="evenodd" clip-rule="evenodd" d="M22.3575 3.77844C20.0074 1.34316 16.882 0.00142822 13.5523 0C6.69114 0 1.10717 5.77938 1.10441 12.8827C1.10349 15.1534 1.67661 17.37 2.76596 19.3239L1 26L7.59881 24.2084C9.41705 25.2349 11.464 25.7759 13.5472 25.7766H13.5524C20.4128 25.7766 25.9974 19.9967 26 12.893C26.0014 9.45039 24.7078 6.21356 22.3575 3.77844ZM13.5523 23.6007H13.548C11.6916 23.6 9.87088 23.0836 8.28216 22.1081L7.90453 21.8759L3.9887 22.9392L5.03389 18.9876L4.78781 18.5824C3.75212 16.8775 3.20522 14.9068 3.20614 12.8835C3.20829 6.97941 7.84964 2.17598 13.5564 2.17598C16.3199 2.17693 18.9176 3.29221 20.8709 5.31632C22.8243 7.34043 23.8993 10.0309 23.8984 12.8922C23.896 18.7968 19.2549 23.6007 13.5523 23.6007V23.6007ZM19.2273 15.5806C18.9164 15.4194 17.3872 14.6409 17.102 14.5333C16.8171 14.4258 16.6095 14.3724 16.4024 14.6945C16.1949 15.0166 15.599 15.7419 15.4174 15.9566C15.2359 16.1714 15.0547 16.1984 14.7436 16.0372C14.4325 15.8761 13.4304 15.536 12.2423 14.4393C11.3178 13.5857 10.6936 12.5315 10.5121 12.2094C10.3308 11.8869 10.5105 11.7295 10.6485 11.5524C10.9852 11.1197 11.3224 10.666 11.426 10.4513C11.5298 10.2364 11.4778 10.0483 11.4 9.88727C11.3224 9.7262 10.7003 8.14166 10.4412 7.4969C10.1886 6.86943 9.93236 6.95417 9.74132 6.94434C9.5601 6.93497 9.35265 6.93307 9.14521 6.93307C8.93792 6.93307 8.60092 7.01353 8.31574 7.33599C8.03071 7.65829 7.22731 8.43699 7.22731 10.0215C7.22731 11.6061 8.3418 13.1368 8.49727 13.3517C8.65274 13.5665 10.6905 16.8181 13.8105 18.2124C14.5526 18.5444 15.1318 18.7422 15.5836 18.8906C16.3288 19.1356 17.0066 19.101 17.5426 19.0182C18.1403 18.9257 19.3826 18.2394 19.6421 17.4875C19.9012 16.7354 19.9012 16.091 19.8233 15.9566C19.7457 15.8223 19.5383 15.7419 19.2273 15.5806V15.5806Z" fill="#7AD06D"/>
</svg>
